<svg version="1.2" xmlns="http://www.w3.org/2000/svg" viewBox="0 0 1738 221">
    <style>.a{fill:#8147ae}</style>
    <path class="a" d="m268 0.4h-0.5v0.6l-187.9 220.2h42.8l145.1-170.1v170.1h32.5v-208.2-12.6z"/>
    <path class="a"
          d="m107.8 139.9l21.3-25.1 97.6-114.4h-42.7l-76.2 89.4-75.8-88.8v-0.6h-0.5-32v12.6 208.2h32.5v-170.1l54.4 63.7z"/>
    <path class="a"
          d="m253.4 145.1c0 9-7.3 16.3-16.3 16.3-9 0-16.3-7.3-16.3-16.3 0-9 7.3-16.3 16.3-16.3 9 0 16.3 7.3 16.3 16.3z"/>
    <path class="a"
          d="m470 93.2h-20.2v-64.1l-39.1 64.1h-17.2l-38.8-63.8v63.8h-20.1v-91.5h27.5l40.1 66.2 40.2-66.2h27.6z"/>
    <path class="a" d="m582.7 1.7v17.7h-76.5v19.4h72v17.3h-72v19.3h76.5v17.8h-96.6v-91.5z"/>
    <path class="a" d="m619.4 1.7v72.4h73.8v19.1h-93.9v-91.5z"/>
    <path fill-rule="evenodd" class="a"
          d="m737.6 73.9l-10.2 19.3h-23.7l48.6-91.5h28.5l48.7 91.5h-23.8l-10.2-19.3zm29.8-53h-1.8l-18.4 35h38.8z"/>
    <path class="a" d="m959.5 93.2h-27.7l-68.1-69.5v69.5h-20.2v-91.5h28l67.9 69v-69h20.1z"/>
    <path class="a" d="m996.9 1.7v91.5h-20.1v-91.5z"/>
    <path class="a" d="m1110.8 1.7v17.7h-76.6v19.4h72v17.3h-72v19.3h76.6v17.8h-96.7v-91.5z"/>
    <path fill-rule="evenodd" class="a"
          d="m1226.9 73.9l-10.2 19.3h-23.8l48.7-91.5h28.5l48.7 91.5h-23.8l-10.2-19.3zm29.8-53h-1.8l-18.4 35h38.8z"/>
    <path class="a" d="m1429.2 93.2v-36.4h-75.2v36.4h-20.1v-91.5h20.1v36.4h75.2v-36.4h20.1v91.5z"/>
    <path class="a" d="m1486.8 1.7v91.5h-20.2v-91.5z"/>
    <path fill-rule="evenodd" class="a"
          d="m1571.4 1.7q8.8 0 17 3.3 8.2 3.3 13.6 11 5.4 7.6 5.4 19.6 0 11.9-5.3 19.5-5.3 7.7-13.5 11.1-8.2 3.4-17.2 3.4h-48.3v23.6h-20.1v-91.5zm4.9 48.8q4.5-0.8 7.8-4.2 3.2-3.5 3.2-10.7 0-7-3.2-10.4-3.3-3.4-7.8-4.3-4.6-0.9-11.3-0.9h-41.8v31.3h41.8q6.8 0 11.3-0.8z"/>
    <path fill-rule="evenodd" class="a"
          d="m1634.9 82.3q-14.3-12.2-14.3-35.2 0-23 14.2-34.8 14.3-11.9 44.2-11.9 29.4 0 44.1 12 14.6 12 14.6 34.7 0 22.9-14.6 35.1-14.7 12.3-44.1 12.3-29.8 0-44.1-12.2zm72.2-12.3q9.3-7.2 9.3-22.9 0-15.4-9.3-22.4-9.4-7-28.1-7-18.6 0-27.8 7-9.2 6.9-9.2 22.4 0 15.8 9.3 22.9 9.3 7.1 27.7 7.1 18.7 0 28.1-7.1z"/>
    <path fill-rule="evenodd" class="a"
          d="m331.1 215.9v-40.8h9.2q10.1 0 10.1 12 0 3.6-1.1 6.1-1.1 2.5-3.8 4.1l6.2 18.6h-6.1l-5.4-17.4h-3.4v17.4zm5.8-35.3v12.7h3.2q1.5 0 2.4-0.4 0.9-0.5 1.4-1.3 0.5-0.8 0.6-1.9 0.2-1.2 0.2-2.8 0-1.5-0.2-2.7-0.1-1.2-0.6-2-1.1-1.6-4.1-1.6z"/>
    <path class="a" d="m371.9 215.9v-40.8h17v5.5h-11.3v12h9.9v5.5h-9.9v11.9h11.3v5.9z"/>
    <path class="a"
          d="m427.7 204.3v2.5q0 1.9-0.7 3.6-0.7 1.6-1.9 3-1.3 1.3-2.9 2.1-1.7 0.7-3.6 0.7-1.6 0-3.3-0.4-1.7-0.5-3-1.6-1.4-1.2-2.3-3-0.8-1.8-0.8-4.6v-22.5q0-2 0.6-3.7 0.7-1.7 1.9-3 1.3-1.2 3-2 1.7-0.7 3.8-0.7 4 0 6.6 2.7 1.2 1.3 1.9 3.2 0.7 1.8 0.7 3.9v2.3h-5.7v-2q0-1.7-1-3-0.9-1.2-2.6-1.2-2.1 0-2.8 1.3-0.7 1.4-0.7 3.4v20.9q0 1.8 0.8 3 0.7 1.2 2.7 1.2 0.5 0 1.2-0.2 0.6-0.2 1.2-0.7 0.5-0.4 0.8-1.2 0.4-0.8 0.4-2v-2z"/>
    <path class="a" d="m449.2 215.9v-40.8h5.7v17.5h7.1v-17.5h5.7v40.8h-5.7v-18.2h-7.1v18.2z"/>
    <path class="a" d="m493.7 215.9v-35.3h-6.6v-5.5h19v5.5h-6.6v35.3z"/>
    <path class="a"
          d="m544 186.8h-5.7v-1.3q0-2-0.9-3.5-1-1.4-3.2-1.4-1.1 0-1.9 0.4-0.7 0.5-1.1 1.2-0.5 0.7-0.7 1.7-0.1 0.9-0.1 2 0 1.2 0.1 2 0 0.8 0.4 1.4 0.3 0.6 1 1.1 0.6 0.4 1.7 0.9l4.4 1.8q1.9 0.7 3.1 1.7 1.2 1 1.8 2.3 0.7 1.4 0.9 3.2 0.2 1.7 0.2 4 0 2.5-0.5 4.7-0.5 2.2-1.6 3.8-1.2 1.6-3.1 2.5-1.9 0.9-4.7 0.9-2 0-3.8-0.7-1.8-0.8-3.1-2.1-1.3-1.3-2.1-3-0.7-1.8-0.7-3.9v-2.1h5.7v1.8q0 1.6 0.9 2.9 0.9 1.3 3.1 1.3 1.5 0 2.3-0.4 0.8-0.5 1.3-1.3 0.4-0.8 0.5-1.9 0.1-1.1 0.1-2.5 0-1.6-0.1-2.6-0.1-1.1-0.5-1.7-0.4-0.6-1-1-0.7-0.4-1.7-0.9l-4.1-1.7q-3.7-1.5-5-4.1-1.3-2.5-1.3-6.4 0-2.3 0.7-4.3 0.6-2.1 1.8-3.6 1.2-1.5 3-2.4 1.8-0.9 4.4-0.9 2.1 0 3.9 0.8 1.7 0.8 3 2.2 2.6 2.7 2.6 6.3z"/>
    <path fill-rule="evenodd" class="a"
          d="m562.6 215.9l8.9-40.8h4.8l8.9 40.8h-5.7l-1.7-8.8h-7.8l-1.7 8.8zm14.1-14.3l-2.8-14.8h-0.1l-2.8 14.8z"/>
    <path class="a" d="m604.6 215.9v-40.8h5.5l8.7 24.6h0.1v-24.6h5.7v40.8h-5.4l-8.7-24.5h-0.2v24.5z"/>
    <path class="a"
          d="m676.3 175.1l-5.9 40.8h-5.4l-4.4-26.5h-0.1l-4.3 26.5h-5.4l-6-40.8h6.1l2.9 25.9h0.1l4.5-25.9h4.3l4.7 26.5h0.1l2.8-26.5z"/>
    <path fill-rule="evenodd" class="a"
          d="m692.5 215.9l8.9-40.8h4.8l9 40.8h-5.8l-1.7-8.8h-7.8l-1.7 8.8zm4.3-43.3v-5.9h5.1v5.9zm9.9 29l-2.9-14.8h-0.1l-2.8 14.8zm-0.8-29v-5.9h5.1v5.9z"/>
    <path class="a" d="m734.8 215.9v-40.8h5.7v34.9h11.4v5.9z"/>
    <path class="a" d="m772 215.9v-35.3h-6.6v-5.5h19v5.5h-6.6v35.3z"/>
    <path class="a" d="m803.9 215.9v-40.8h5.8v40.8z"/>
    <path class="a" d="m831.9 215.9v-40.8h5.5l8.6 24.6h0.1v-24.6h5.8v40.8h-5.4l-8.8-24.5h-0.1v24.5z"/>
    <path fill-rule="evenodd" class="a"
          d="m918.3 215.9l-1.9-3.1q-1.7 1.7-3.5 2.6-1.8 0.8-4.1 0.8-1.7 0-3.2-0.7-1.6-0.6-2.7-1.9-1.1-1.2-1.8-3-0.6-1.7-0.6-3.8 0-3.4 1.6-5.9 1.5-2.6 3.9-4.7-1.5-2.2-2.5-4.5-1-2.4-1-4.9 0-1.6 0.5-3.1 0.5-1.5 1.5-2.5 0.9-1.1 2.4-1.7 1.5-0.6 3.4-0.6 1.9 0 3.3 0.6 1.4 0.6 2.3 1.5 2 2.2 2 5.3 0 2.9-1.7 5.5-1.8 2.5-4.1 4.7 0.5 0.8 1.1 1.8 0.6 1.1 1.3 2.2 1.4 2.5 2.8 4.6l3.1-4.3 3.6 2.5-4.3 5.6 4.3 7zm-12.7-9.4q0 2.1 1.2 3.6 1.2 1.5 3 1.5 1.3 0 2.5-0.8 1.2-0.8 1.8-1.6l-5.5-9q-1.3 1.4-2.1 2.9-0.9 1.5-0.9 3.4zm2-19.6q0 1.3 0.6 2.8 0.6 1.5 1.6 3.1 0.5-0.5 1.1-1.2 0.6-0.6 1.1-1.4 0.5-0.9 0.9-1.8 0.3-0.9 0.3-2 0-1.1-0.7-2-0.7-1-2-1-1.3 0-2.1 1.1-0.8 1.1-0.8 2.4z"/>
    <path fill-rule="evenodd" class="a"
          d="m972.3 215.9v-40.8h9.2q10.2 0 10.2 12 0 3.6-1.1 6.1-1.1 2.5-3.9 4.1l6.2 18.6h-6.1l-5.3-17.4h-3.4v17.4zm5.7-35.3v12.7h3.2q1.6 0 2.5-0.4 0.9-0.5 1.4-1.3 0.4-0.8 0.6-1.9 0.2-1.2 0.2-2.8 0-1.5-0.2-2.7-0.2-1.2-0.7-2-1.1-1.6-4-1.6z"/>
    <path class="a" d="m1013.1 215.9v-40.8h17.1v5.5h-11.4v12h9.9v5.5h-9.9v11.9h11.4v5.9z"/>
    <path class="a"
          d="m1068.9 204.3v2.5q0 1.9-0.7 3.6-0.7 1.6-1.9 3-1.2 1.3-2.9 2.1-1.7 0.7-3.6 0.7-1.6 0-3.3-0.4-1.7-0.5-3-1.6-1.4-1.2-2.2-3-0.9-1.8-0.9-4.6v-22.5q0-2 0.7-3.7 0.6-1.7 1.9-3 1.2-1.2 2.9-2 1.7-0.7 3.8-0.7 4.1 0 6.6 2.7 1.2 1.3 1.9 3.2 0.7 1.8 0.7 3.9v2.3h-5.7v-2q0-1.7-0.9-3-1-1.2-2.6-1.2-2.2 0-2.9 1.3-0.7 1.4-0.7 3.4v20.9q0 1.8 0.8 3 0.7 1.2 2.7 1.2 0.6 0 1.2-0.2 0.7-0.2 1.2-0.7 0.5-0.4 0.9-1.2 0.3-0.8 0.3-2v-2z"/>
    <path class="a" d="m1090.4 215.9v-40.8h5.8v17.5h7.1v-17.5h5.7v40.8h-5.7v-18.2h-7.1v18.2z"/>
    <path class="a" d="m1135 215.9v-35.3h-6.6v-5.5h18.9v5.5h-6.6v35.3z"/>
    <path class="a" d="m1166.7 215.9v-40.8h5.7v34.9h11.4v5.9z"/>
    <path class="a" d="m1204.5 215.9v-40.8h5.7v40.8z"/>
    <path class="a"
          d="m1250.9 204.3v2.5q0 1.9-0.7 3.6-0.8 1.6-2 3-1.2 1.3-2.9 2.1-1.6 0.7-3.5 0.7-1.7 0-3.4-0.4-1.6-0.5-3-1.6-1.3-1.2-2.2-3-0.9-1.8-0.9-4.6v-22.5q0-2 0.7-3.7 0.7-1.7 1.9-3 1.2-1.2 3-2 1.7-0.7 3.7-0.7 4.1 0 6.6 2.7 1.2 1.3 2 3.2 0.7 1.8 0.7 3.9v2.3h-5.8v-2q0-1.7-0.9-3-1-1.2-2.6-1.2-2.1 0-2.9 1.3-0.7 1.4-0.7 3.4v20.9q0 1.8 0.8 3 0.8 1.2 2.7 1.2 0.6 0 1.2-0.2 0.7-0.2 1.2-0.7 0.6-0.4 0.9-1.2 0.3-0.8 0.3-2v-2z"/>
    <path class="a" d="m1272.4 215.9v-40.8h5.7v17.5h7.1v-17.5h5.7v40.8h-5.7v-18.2h-7.1v18.2z"/>
    <path class="a" d="m1313.1 215.9v-40.8h17.1v5.5h-11.3v12h9.9v5.5h-9.9v11.9h11.3v5.9z"/>
    <path fill-rule="evenodd" class="a"
          d="m1378.1 215.9v-40.8h8.3q2.8 0 4.7 0.8 2 0.9 3.2 2.3 1.2 1.5 1.8 3.3 0.5 1.9 0.5 3.9v1.5q0 1.6-0.3 2.8-0.2 1.1-0.7 2-1 1.6-2.9 2.7 2 1 2.9 2.9 1 1.9 1 5.2v2.3q0 5.4-2.6 8.2-2.5 2.9-8.1 2.9zm5.7-35.3v11.2h2.6q2.9 0 3.8-1.4 1-1.5 1-4.3 0-2.8-1.1-4.1-1.1-1.4-3.9-1.4zm0 16.4v13h2.4q1.8 0 2.8-0.5 0.9-0.5 1.4-1.4 0.6-0.9 0.7-2.2 0.1-1.2 0.1-2.7 0-1.6-0.2-2.7-0.2-1.2-0.7-2-0.5-0.8-1.5-1.2-0.9-0.3-2.5-0.3z"/>
    <path class="a" d="m1418.8 215.9v-40.8h17.1v5.5h-11.3v12h9.9v5.5h-9.9v11.9h11.3v5.9z"/>
    <path class="a" d="m1460.2 215.9v-35.3h-6.6v-5.5h19v5.5h-6.6v35.3z"/>
    <path fill-rule="evenodd" class="a"
          d="m1492 215.9v-40.8h9.2q10.1 0 10.1 12 0 3.6-1.1 6.1-1.1 2.5-3.9 4.1l6.2 18.6h-6l-5.4-17.4h-3.4v17.4zm5.7-35.3v12.7h3.3q1.5 0 2.4-0.4 0.9-0.5 1.4-1.3 0.5-0.8 0.6-1.9 0.2-1.2 0.2-2.8 0-1.5-0.2-2.7-0.1-1.2-0.7-2-1-1.6-4-1.6z"/>
    <path class="a" d="m1532.7 215.9v-40.8h17.1v5.5h-11.3v12h9.9v5.5h-9.9v11.9h11.3v5.9z"/>
    <path class="a"
          d="m1588.9 175.1v31.6q0 2-0.7 3.7-0.7 1.7-2 3-1.3 1.3-3 2.1-1.6 0.7-3.6 0.7-1.9 0-3.5-0.7-1.7-0.8-3-2.1-1.3-1.3-2-3-0.7-1.7-0.7-3.7v-31.6h5.7v31q0 2.2 1 3.3 1 1 2.5 1 1.6 0 2.6-1 1-1.1 1-3.3v-31z"/>
    <path class="a" d="m1611.2 215.9v-40.8h17v5.5h-11.3v12h9.9v5.5h-9.9v11.9h11.3v5.9z"/>
    <path fill-rule="evenodd" class="a"
          d="m1648.8 215.9v-40.8h9.2q10.1 0 10.1 12 0 3.6-1.1 6.1-1.1 2.5-3.8 4.1l6.1 18.6h-6l-5.4-17.4h-3.4v17.4zm5.7-35.3v12.7h3.3q1.5 0 2.4-0.4 0.9-0.5 1.4-1.3 0.5-0.8 0.6-1.9 0.2-1.2 0.2-2.8 0-1.5-0.2-2.7-0.1-1.2-0.6-2-1.1-1.6-4.1-1.6z"/>
    <path class="a" d="m1689.7 215.9v-40.8h5.8v40.8z"/>
    <path class="a" d="m1717.6 215.9v-40.8h5.5l8.7 24.6h0.1v-24.6h5.7v40.8h-5.4l-8.7-24.5h-0.1v24.5z"/>
    <path class="a" d="m1730.4 133.8h-1395.8v-5.4h1395.8z"/>
</svg>
